<svg xmlns="http://www.w3.org/2000/svg" viewBox="0 0 47.7 66.3" height="250.6" width="180.1"><path d="M4.1 66c-.6-.2-1.2-1-1.6-1.5-.3-.7-.4-2.2 0-3.2.3-.8 1.5-2.5 2.1-3.2l.6-.5v-1.1a11.2 11.2 0 01.7-4.2l-.8-.6c-2.4-1-4.5-2.4-5-3.3C0 48 0 47 .2 46.6h2.6c3.5.2 6.6 0 8.4-.7a32.6 32.6 0 007.4-5c1.4-1.5 2-2.6 2.2-3.8v-.7l-.6-.4-2-1.6c-2.6-2.3-4-4.4-4-6.1 0-.4 0-.5.4-.5l4 .5h1.1l.3-.3-.3-.7c-.9-1.9-1-2.8-.6-3.4l.3-.3 1 .3c1 .3 2.6.9 3 1.2l.4.3 2-.7c3.8-1.2 6.2-1.7 8.4-1.7 1.3 0 1.5 0 1.8.2.7.7 1.3 5.6.9 7.7a8.1 8.1 0 01-2.8 4.5 4 4 0 01-2.4 1c-.6 0-.7 0-.9.3-.2.5-.6 1-1.1 1.3l-.5.2v2.4l1-.1c1.4-.1 5.4.1 7.1.5 1.6.3 2.8.7 3.1 1 .4.4.3 1-.3 1.5-.6.7-4.4 3.3-5.5 3.9-1.2.6-2.4.7-3.3.3l-.6-.3-.4.3c-.4.3-.7.4-1.6.5-.2 0-.3.2-.4.4-.6 2-1.6 3.8-2.9 5.1a11.3 11.3 0 01-7.9 3.7c-1.2 0-3.2 0-4.5-.2l-.6-.1-2 2c-3.1 3.2-4.7 5-5.3 6.4l-.4.8zm.7-2.8c.8-1 3.1-3.6 5.5-6l1.6-1.5h.7c3 .4 3.3.4 4.7.3 2.6-.3 4.5-1 6.2-2.4 1.8-1.4 3.2-4 3.6-6.5l.1-1 .4.2c.8.6 1 .6 1.6.4l1-.8.4-.4.6.5c.5.4.6.5 1.2.5 1 0 2.6-.9 6-3.4l.4-.3-.8-.2c-1.8-.5-3.8-.7-7-.7h-3.3V37h.4c1.2-.3 1.5-.7 1.6-2v-1l.7.5 1 .5c.7 0 1.6-.6 2.4-1.4.8-1 1.3-1.9 1.5-3 .2-.8.2-3.3 0-4.1V26v.5c-.1.7-.8 1.4-1.4 1.4-.5 0-.6-.1-1.3-.7-.5-.5-.5-1 0-1.5.6-.6 2.2-1.1 2.5-.8.3.2 0 .3-.1-.2l-.2-.4-1.2.1c-1.3.1-3.7.6-5.1 1-.9.2-1 .3-1 .7 0 .5-.4 1-.9 1.1-.6 0-.8 0-1.1-.4l-.4-.4-.8.3-.9.4-.6-.6c-.6-.5-2.5-1.3-2.5-1L21 27l.7 1.5-.5.4-1 .8-.3.5-.9-.3c-.8-.3-3-.6-3.2-.5 0 .2.6 1.2 1.4 2.1.8 1 2.3 2.3 3.9 3.5 1 .7 1 1 1 1.7 0 2.8-2.5 5.8-7.4 8.9-3.3 2-5.2 2.5-10.4 2.5H1.6l.5.4c.6.6 3.1 1.8 5 2.5l1.4.6-.6.6c-1 .9-1.2 1.7-1.3 4v1.9l-.8.8c-1.9 2-2.5 3.5-2 4.8l.2.4.8-1zM25 29.6c-.7-.4-.8-1.5 0-2 1-.8 2.4 1 1.3 1.8-.4.4-.8.5-1.3.2zm18.3 13c-2-2.4-3-4-3.5-5.2-.4-1.5 0-3 1.9-6.7 1.8-3.6 2-4.3 2-5.7.1-1 .1-1.2-.2-1.9-.6-1.1-1.8-2-3.6-2.4-1.2-.4-1.3-.3-1.2.2l.1.8c.1.3.1.3-1 .2h-1.2c0-.1 0-.4.2-.6l.2-.5h-1.8c-3 0-5.1-.5-7.5-1.7-4.4-2.2-6.6-6.2-5.5-10.2 1-4.3 5.5-7 9.6-6l1.1.3.9-.9A8 8 0 0143.2 1c4.5 2.2 5.8 7.7 3 12.7-1 1.9-3 3.8-5 5.2l-.7.5.7.3c1.8.6 3 1.6 3.7 3 .3.6.4 1 .4 1.9 0 1.6-.2 2.6-2 6.2-1.8 3.8-2 4.3-2 5.5 0 .8 0 1 .4 1.8a21 21 0 002.7 3.5c.8 1 1 1.4.6 1.7-.3.4-.8.2-1.6-.7zm-6.8-23.3l-.2-.4c-.5-.4-2.2-2.4-2.7-3.2-.8-1.2-1.7-3.3-2-4.5a10.5 10.5 0 01.5-6.6c.1-.4-2-.6-3.5-.3a7 7 0 00-5.1 5.1c-.3 1-.1 2.9.2 3.8 1.2 3.2 5 5.5 9.7 6 1.2.2 3.1.2 3.1.1zm4-1.8c.5-.3 1.4-1.1 2-1.8 2.2-2 3.3-4.1 3.6-6.6.6-4-2.6-7.7-6.7-7.7A6.8 6.8 0 0033.2 6c-.3.8-.4 1.1-.4 2.5 0 1.8.3 3 1.1 4.6 1 1.9 1.8 3 3.5 4.8l1 1 .6-.3 1.5-1z" fill="#fff"/></svg>